<svg width="70%" height="70%" version="1.1" viewBox="0 0 132.29 21.259" xmlns="http://www.w3.org/2000/svg"><defs><clipPath id="clipPath4567"><path d="m0 110h436.06v-110h-436.06z"></path></clipPath></defs><g transform="matrix(.35278 0 0 -.35278 -10.77 29.352)" clip-path="url(#clipPath4567)"><g transform="translate(285.12 82.257)"><path d="m0 0c0.243-0.038 0.298-0.093 0.262-0.318l-0.132-0.801c-0.036-0.224-0.092-0.336-0.409-0.299-0.821 0.057-2.127 0.112-3.208 0.112-1.512 0-3.096-0.261-3.096-1.902 0-0.895 0.428-1.343 1.66-2.163l1.529-1.026c1.734-1.157 2.349-2.145 2.349-3.506 0-2.63-2.219-3.991-5.202-3.991-1.026 0-2.369 0.13-3.171 0.26-0.223 0.038-0.336 0.113-0.299 0.337l0.131 0.745c0.037 0.261 0.112 0.336 0.429 0.299 0.84-0.075 2.201-0.112 3.059-0.112 2.014 0 3.264 0.689 3.264 2.462 0 0.895-0.485 1.342-1.791 2.237l-1.622 1.101c-1.269 0.857-2.033 1.921-2.033 3.263 0 2.593 2.256 3.526 4.793 3.526 1.1 0 2.797-0.113 3.487-0.224" fill="#4f4c4d"></path></g><g transform="translate(290.52 77.445)"><path d="m0 0c-1.624 0-2.704-1.287-3.04-3.003l-0.019-0.093h4.943l0.018 0.093c0.074 0.374 0.112 0.728 0.112 1.026 0 1.325-0.69 1.977-2.014 1.977m3.543-3.152-0.149-0.783c-0.057-0.243-0.13-0.41-0.411-0.41h-6.285l-0.037-0.224c-0.074-0.429-0.112-0.802-0.112-1.138 0-1.399 0.877-1.996 2.312-1.996 1.082 0 2.351 0.131 3.226 0.262 0.281 0.037 0.392-0.018 0.355-0.262l-0.111-0.633c-0.038-0.262-0.131-0.373-0.447-0.429-1.101-0.206-2.014-0.317-3.264-0.317-1.847 0-3.675 0.932-3.675 3.45 0 0.354 0.037 0.745 0.113 1.155l0.241 1.306c0.56 2.965 2.295 4.607 4.942 4.607 2.314 0 3.413-1.511 3.413-3.469 0-0.354-0.036-0.728-0.111-1.119" fill="#4f4c4d"></path></g><g transform="translate(296.46 68.867)"><path d="m0 0c-0.036-0.206-0.242-0.374-0.447-0.374h-0.914c-0.204 0-0.317 0.187-0.28 0.374l1.66 9.511c0.037 0.205 0.224 0.373 0.429 0.373h0.877c0.223 0 0.317-0.186 0.279-0.373l-0.073-0.429c1.007 0.783 1.901 0.933 2.759 0.933h0.037c0.317 0 0.374-0.131 0.336-0.336l-0.13-0.783c-0.038-0.205-0.187-0.317-0.448-0.317h-0.056c-1.063 0-1.753-0.187-2.666-0.765z" fill="#4f4c4d"></path></g><g transform="translate(310.24 78.303)"><path d="m0 0-3.879-8.467c-0.541-1.175-1.324-1.473-2.07-1.473-0.728 0-1.418 0.298-1.549 1.473l-0.895 8.467c-0.036 0.335 0.132 0.448 0.354 0.448h0.953c0.149 0 0.279-0.113 0.297-0.355l0.653-8.093c0.038-0.467 0.168-0.579 0.355-0.579 0.167 0 0.335 0.112 0.541 0.579l3.524 8.093c0.113 0.242 0.205 0.355 0.485 0.355h1.044c0.149 0 0.243-0.094 0.243-0.224 0-0.075-0.018-0.149-0.056-0.224" fill="#4f4c4d"></path></g><g transform="translate(314.04 82.63)"><path d="m0 0c0.262 0 0.335-0.112 0.298-0.373l-0.26-1.492c-0.057-0.261-0.149-0.373-0.449-0.373h-0.95c-0.28 0-0.336 0.186-0.299 0.373l0.261 1.492c0.038 0.205 0.168 0.373 0.448 0.373zm-0.728-3.879c0.225 0 0.354-0.075 0.3-0.373l-1.661-9.511c-0.036-0.206-0.13-0.374-0.447-0.374h-0.896c-0.26 0-0.336 0.187-0.298 0.374l1.66 9.511c0.056 0.335 0.243 0.373 0.448 0.373z" fill="#4f4c4d"></path></g><g transform="translate(318.61 67.617)"><path d="m0 0-2.536-2.35c-0.206-0.186-0.261-0.279-0.466-0.279h-1.007c-0.094 0-0.149 0.037-0.149 0.111 0 0.056 0.037 0.131 0.111 0.205l2.219 2.313c0.206 0.206 0.281 0.28 0.504 0.28h1.231c0.112 0 0.187-0.038 0.187-0.113 0-0.036-0.019-0.093-0.094-0.167m3.544 10.649-0.112-0.671c-0.036-0.187-0.223-0.28-0.391-0.28h-0.057c-0.801 0.093-1.361 0.131-2.275 0.131-1.492 0-2.574-1.175-2.891-3.097l-0.241-1.454c-0.076-0.429-0.113-0.783-0.113-1.119 0-1.417 0.671-1.977 1.883-1.977 0.915 0 1.529 0.037 2.35 0.131h0.056c0.149 0 0.28-0.075 0.28-0.224v-0.056l-0.112-0.672c-0.038-0.261-0.149-0.354-0.447-0.41-0.634-0.112-1.492-0.204-2.368-0.204-2.184 0-3.264 1.51-3.264 3.505 0 0.335 0.037 0.672 0.093 1.026l0.243 1.454c0.503 3.022 2.238 4.533 4.774 4.533 0.877 0 1.697-0.094 2.293-0.205 0.224-0.038 0.318-0.112 0.318-0.28 0-0.038-0.019-0.075-0.019-0.131" fill="#4f4c4d"></path></g><g transform="translate(326.81 77.445)"><path d="m0 0c-1.623 0-2.742-1.212-3.059-3.114l-0.242-1.418c-0.074-0.41-0.112-0.765-0.112-1.1 0-1.324 0.596-2.014 2.052-2.014 1.64 0 2.76 1.287 3.077 3.114l0.242 1.418c0.075 0.391 0.094 0.745 0.094 1.062 0 1.343-0.598 2.052-2.052 2.052m3.6-3.114-0.244-1.418c-0.484-2.835-2.013-4.55-4.96-4.55-2.239 0-3.432 1.454-3.432 3.524 0 0.336 0.037 0.671 0.094 1.026l0.243 1.418c0.521 3.021 2.163 4.55 4.942 4.55 2.293 0 3.449-1.455 3.449-3.506 0-0.336-0.036-0.691-0.092-1.044" fill="#4f4c4d"></path></g><g transform="translate(346.39 81.996)"><path d="m0 0c0.038 0.186 0.111 0.354 0.392 0.354h0.988c0.187 0 0.28-0.13 0.28-0.279v-0.075l-2.293-12.961c-0.057-0.299-0.151-0.542-0.636-0.542h-1.08c-0.393 0-0.468 0.112-0.542 0.299l-3.916 10.947-0.038 0.056c-0.018 0-0.037-0.018-0.037-0.056l-1.92-10.891c-0.037-0.187-0.205-0.355-0.392-0.355h-1.082c-0.13 0-0.224 0.056-0.187 0.224l2.314 13.111c0.054 0.298 0.203 0.522 0.633 0.522h0.914c0.523 0 0.597-0.093 0.691-0.373l3.878-10.798c0.038-0.112 0.055-0.15 0.074-0.15s0.038 0.038 0.057 0.15z" fill="#4f4c4d"></path></g><g transform="translate(353.3 77.501)"><path d="m0 0c-1.921 0-2.891-1.062-3.245-3.04l-0.336-1.92c-0.056-0.28-0.075-0.579-0.075-0.858 0-1.437 0.728-1.94 1.623-1.94 0.877 0 1.679 0.392 2.704 1.082l1.138 6.49c-0.504 0.093-1.026 0.186-1.809 0.186m3.264 0.951c0.336-0.074 0.355-0.186 0.317-0.429l-1.604-9.156c-0.038-0.206-0.131-0.374-0.429-0.374h-0.746c-0.28 0-0.317 0.15-0.28 0.41l0.093 0.578c-1.099-0.782-1.752-1.118-3.002-1.118-1.586 0-2.909 1.007-2.909 3.301 0 0.355 0.037 0.727 0.111 1.119l0.335 1.846c0.579 3.226 2.612 4.252 4.85 4.252 1.119 0 2.312-0.187 3.264-0.429" fill="#4f4c4d"></path></g><g transform="translate(359.56 74.349)"><path d="m0 0-0.243-1.455c-0.073-0.429-0.111-0.782-0.111-1.119 0-1.417 0.671-1.976 1.883-1.976 0.915 0 1.53 0.037 2.35 0.13 0.298 0.057 0.373-0.074 0.336-0.28l-0.111-0.671c-0.039-0.261-0.15-0.355-0.449-0.41-0.615-0.113-1.492-0.205-2.369-0.205-2.182 0-3.264 1.51-3.264 3.506 0 0.335 0.038 0.671 0.095 1.025l0.243 1.455c0.503 3.021 2.219 4.532 4.774 4.532 0.856 0 1.697-0.094 2.293-0.205 0.336-0.056 0.336-0.167 0.298-0.41l-0.111-0.672c-0.038-0.204-0.112-0.335-0.447-0.279-0.803 0.093-1.362 0.13-2.276 0.13-1.492 0-2.574-1.175-2.891-3.096" fill="#4f4c4d"></path></g><g transform="translate(369.18 82.63)"><path d="m0 0c0.262 0 0.335-0.112 0.298-0.373l-0.26-1.492c-0.057-0.261-0.149-0.373-0.449-0.373h-0.95c-0.28 0-0.336 0.186-0.299 0.373l0.261 1.492c0.038 0.205 0.168 0.373 0.448 0.373zm-0.728-3.879c0.225 0 0.354-0.075 0.3-0.373l-1.661-9.511c-0.036-0.206-0.13-0.374-0.447-0.374h-0.896c-0.26 0-0.336 0.187-0.298 0.374l1.66 9.511c0.056 0.335 0.243 0.373 0.448 0.373z" fill="#4f4c4d"></path></g><g transform="translate(374.68 77.445)"><path d="m0 0c-1.624 0-2.742-1.212-3.059-3.114l-0.243-1.418c-0.073-0.41-0.111-0.765-0.111-1.1 0-1.324 0.596-2.014 2.051-2.014 1.641 0 2.761 1.287 3.078 3.114l0.241 1.418c0.076 0.391 0.094 0.745 0.094 1.062 0 1.343-0.597 2.052-2.051 2.052m3.6-3.114-0.244-1.418c-0.484-2.835-2.014-4.55-4.96-4.55-2.239 0-3.433 1.454-3.433 3.524 0 0.336 0.038 0.671 0.095 1.026l0.243 1.418c0.52 3.021 2.163 4.55 4.942 4.55 2.293 0 3.449-1.455 3.449-3.506 0-0.336-0.036-0.691-0.092-1.044" fill="#4f4c4d"></path></g><g transform="translate(387.97 75.002)"><path d="m0 0-1.083-6.136c-0.037-0.205-0.242-0.373-0.446-0.373h-0.896c-0.224 0-0.336 0.187-0.298 0.373l1.081 6.136c0.056 0.354 0.094 0.727 0.094 1.026 0 0.894-0.373 1.417-1.735 1.417-0.709 0-1.437-0.149-2.63-0.709l-1.379-7.87c-0.038-0.186-0.243-0.373-0.448-0.373h-0.915c-0.222 0-0.317 0.205-0.279 0.373l1.66 9.511c0.037 0.206 0.15 0.374 0.486 0.374h0.782c0.298 0 0.392-0.113 0.355-0.374l-0.057-0.391c0.896 0.503 1.735 0.895 3.004 0.895 1.995 0 2.796-1.268 2.796-2.872 0-0.317-0.037-0.69-0.092-1.007" fill="#4f4c4d"></path></g><g transform="translate(394.27 77.501)"><path d="m0 0c-1.921 0-2.891-1.062-3.245-3.04l-0.336-1.92c-0.056-0.28-0.075-0.579-0.075-0.858 0-1.437 0.728-1.94 1.623-1.94 0.877 0 1.679 0.392 2.704 1.082l1.138 6.49c-0.504 0.093-1.026 0.186-1.809 0.186m3.264 0.951c0.336-0.074 0.354-0.186 0.317-0.429l-1.605-9.156c-0.038-0.206-0.13-0.374-0.428-0.374h-0.747c-0.279 0-0.316 0.15-0.279 0.41l0.093 0.578c-1.1-0.782-1.752-1.118-3.002-1.118-1.586 0-2.91 1.007-2.91 3.301 0 0.355 0.038 0.727 0.112 1.119l0.335 1.846c0.579 3.226 2.612 4.252 4.85 4.252 1.118 0 2.312-0.187 3.264-0.429" fill="#4f4c4d"></path></g><g transform="translate(402.17 82.518)"><path d="m0 0c0.206 0 0.317-0.092 0.262-0.354l-2.332-13.297c-0.036-0.205-0.112-0.373-0.41-0.373h-0.969c-0.205 0-0.3 0.187-0.262 0.373l2.331 13.297c0.037 0.205 0.131 0.354 0.411 0.354z" fill="#4f4c4d"></path></g><g transform="translate(276.91 55.076)"><path d="m0 0c-1.828 0-2.647-1.324-2.983-3.133l-0.244-1.343c-0.073-0.448-0.129-0.857-0.129-1.212 0-1.269 0.559-1.959 1.994-1.959 0.635 0 1.549 0.057 2.201 0.113l1.307 7.404c-0.598 0.111-1.548 0.13-2.146 0.13m3.432 5.073h0.952c0.203 0 0.298-0.093 0.26-0.354l-2.293-13.056c-0.038-0.242-0.132-0.371-0.468-0.428-1.193-0.224-2.349-0.317-3.486-0.317-2.276 0-3.376 1.399-3.376 3.432 0 0.372 0.037 0.764 0.112 1.174l0.243 1.343c0.577 3.208 2.144 4.569 4.867 4.569 0.579 0 1.454-0.056 2.144-0.186l0.616 3.469c0.055 0.261 0.223 0.354 0.429 0.354" fill="#4f4c4d"></path></g><g transform="translate(286.62 55.076)"><path d="m0 0c-1.624 0-2.704-1.287-3.04-3.002l-0.019-0.094h4.943l0.018 0.094c0.074 0.373 0.112 0.727 0.112 1.025 0 1.325-0.69 1.977-2.014 1.977m3.543-3.152-0.149-0.783c-0.057-0.242-0.13-0.41-0.411-0.41h-6.285l-0.037-0.224c-0.074-0.429-0.112-0.802-0.112-1.138 0-1.398 0.877-1.995 2.312-1.995 1.082 0 2.351 0.131 3.226 0.261 0.281 0.037 0.392-0.019 0.355-0.261l-0.111-0.635c-0.038-0.26-0.131-0.371-0.447-0.428-1.101-0.206-2.014-0.317-3.264-0.317-1.847 0-3.675 0.932-3.675 3.451 0 0.353 0.037 0.745 0.113 1.155l0.241 1.306c0.56 2.965 2.295 4.606 4.942 4.606 2.314 0 3.413-1.51 3.413-3.469 0-0.354-0.036-0.727-0.111-1.119" fill="#4f4c4d"></path></g><g transform="translate(302.63 58.303)"><path d="m0 0c-0.018 0.206-0.111 0.335-0.298 0.335-0.205 0-0.336-0.129-0.429-0.335l-2.779-6.136h4.122zm2.555-12.178h-1.118c-0.168 0-0.244 0.13-0.261 0.279l-0.467 4.29h-4.83l-1.94-4.29c-0.056-0.149-0.168-0.279-0.392-0.279h-1.137c-0.168 0-0.26 0.092-0.26 0.243 0 0.055 0 0.111 0.036 0.185l5.594 12.142c0.523 1.137 1.326 1.417 2.146 1.417 0.764 0 1.511-0.261 1.641-1.399l1.306-12.16v-0.074c0-0.205-0.094-0.354-0.318-0.354" fill="#4f4c4d"></path></g><g transform="translate(312.18 55.132)"><path d="m0 0c-0.784 0-1.697-0.093-2.22-0.186l-1.287-7.385c0.597-0.113 1.548-0.186 2.146-0.186 1.715 0 2.628 1.267 2.983 3.188l0.243 1.343c0.093 0.485 0.13 0.913 0.13 1.287 0 1.268-0.541 1.939-1.995 1.939m3.505-3.226-0.241-1.343c-0.579-3.169-2.014-4.569-4.868-4.569-0.578 0-1.455 0.074-2.145 0.206l-0.597-3.377c-0.036-0.187-0.223-0.355-0.428-0.355h-0.953c-0.168 0-0.26 0.114-0.26 0.281v0.074l2.257 12.831c0.038 0.262 0.13 0.355 0.466 0.43 1.026 0.242 2.368 0.428 3.505 0.428 2.276 0 3.377-1.38 3.377-3.413 0-0.372-0.037-0.783-0.113-1.193" fill="#4f4c4d"></path></g><g transform="translate(318.08 46.498)"><path d="m0 0c-0.038-0.205-0.243-0.373-0.449-0.373h-0.914c-0.204 0-0.317 0.186-0.279 0.373l1.659 9.511c0.038 0.206 0.224 0.374 0.43 0.374h0.877c0.222 0 0.317-0.187 0.279-0.374l-0.074-0.429c1.007 0.784 1.901 0.933 2.759 0.933h0.038c0.317 0 0.373-0.13 0.335-0.336l-0.13-0.783c-0.037-0.205-0.186-0.317-0.447-0.317h-0.056c-1.064 0-1.754-0.187-2.667-0.765z" fill="#4f4c4d"></path></g><g transform="translate(327.24 55.076)"><path d="m0 0c-1.623 0-2.704-1.287-3.04-3.002l-0.018-0.094h4.942l0.019 0.094c0.074 0.373 0.111 0.727 0.111 1.025 0 1.325-0.69 1.977-2.014 1.977m3.543-3.152-0.149-0.783c-0.056-0.242-0.13-0.41-0.411-0.41h-6.284l-0.038-0.224c-0.074-0.429-0.112-0.802-0.112-1.138 0-1.398 0.877-1.995 2.312-1.995 1.083 0 2.351 0.131 3.227 0.261 0.281 0.037 0.392-0.019 0.354-0.261l-0.111-0.635c-0.038-0.26-0.13-0.371-0.447-0.428-1.101-0.206-2.014-0.317-3.264-0.317-1.846 0-3.675 0.932-3.675 3.451 0 0.353 0.038 0.745 0.113 1.155l0.241 1.306c0.56 2.965 2.295 4.606 4.943 4.606 2.313 0 3.413-1.51 3.413-3.469 0-0.354-0.036-0.727-0.112-1.119" fill="#4f4c4d"></path></g><g transform="translate(340.48 52.634)"><path d="m0 0-1.083-6.136c-0.037-0.205-0.241-0.373-0.446-0.373h-0.896c-0.224 0-0.336 0.187-0.298 0.373l1.081 6.136c0.056 0.354 0.094 0.727 0.094 1.026 0 0.895-0.373 1.417-1.735 1.417-0.709 0-1.437-0.149-2.63-0.709l-1.38-7.87c-0.037-0.186-0.242-0.373-0.447-0.373h-0.915c-0.222 0-0.317 0.206-0.279 0.373l1.66 9.511c0.037 0.206 0.15 0.374 0.486 0.374h0.782c0.298 0 0.392-0.112 0.355-0.374l-0.057-0.391c0.896 0.504 1.735 0.895 3.004 0.895 1.995 0 2.796-1.268 2.796-2.872 0-0.317-0.037-0.69-0.092-1.007" fill="#4f4c4d"></path></g><g transform="translate(346.68 55.076)"><path d="m0 0c-1.827 0-2.647-1.324-2.983-3.133l-0.243-1.343c-0.074-0.448-0.13-0.857-0.13-1.212 0-1.269 0.56-1.959 1.995-1.959 0.635 0 1.548 0.057 2.2 0.113l1.307 7.404c-0.598 0.111-1.548 0.13-2.146 0.13m3.432 5.073h0.952c0.204 0 0.298-0.093 0.26-0.354l-2.293-13.056c-0.038-0.242-0.132-0.371-0.467-0.428-1.194-0.224-2.35-0.317-3.487-0.317-2.276 0-3.375 1.399-3.375 3.432 0 0.372 0.036 0.764 0.111 1.174l0.243 1.343c0.578 3.208 2.145 4.569 4.867 4.569 0.579 0 1.454-0.056 2.144-0.186l0.616 3.469c0.056 0.261 0.223 0.354 0.429 0.354" fill="#4f4c4d"></path></g><g transform="translate(354.97 60.261)"><path d="m0 0c0.262 0 0.335-0.111 0.298-0.373l-0.26-1.492c-0.057-0.261-0.149-0.373-0.449-0.373h-0.95c-0.28 0-0.336 0.187-0.298 0.373l0.26 1.492c0.038 0.206 0.168 0.373 0.448 0.373zm-0.728-3.878c0.225 0 0.355-0.075 0.3-0.374l-1.661-9.511c-0.036-0.205-0.13-0.373-0.447-0.373h-0.896c-0.26 0-0.336 0.186-0.298 0.373l1.66 9.511c0.056 0.335 0.243 0.374 0.448 0.374z" fill="#4f4c4d"></path></g><g transform="translate(362.51 53.921)"><path d="m0 0-5.838-6.061c-0.092-0.094-0.13-0.168-0.13-0.225 0-0.073 0.075-0.13 0.187-0.13h4.755c0.317 0 0.336-0.187 0.298-0.373l-0.111-0.634c-0.057-0.281-0.111-0.373-0.43-0.373h-4.718c-1.118 0-1.621 0.596-1.621 1.305 0 0.373 0.111 0.784 0.428 1.101l5.949 6.173c0.094 0.093 0.113 0.131 0.113 0.205s-0.057 0.094-0.187 0.094h-4.588c-0.205 0-0.335 0.111-0.299 0.373l0.113 0.633c0.055 0.299 0.223 0.374 0.428 0.374h4.663c1.063 0 1.491-0.597 1.491-1.287 0-0.392-0.149-0.802-0.503-1.175" fill="#4f4c4d"></path></g><g transform="translate(368.69 55.132)"><path d="m0 0c-1.921 0-2.891-1.062-3.245-3.04l-0.336-1.92c-0.056-0.28-0.075-0.578-0.075-0.859 0-1.435 0.728-1.938 1.623-1.938 0.877 0 1.679 0.39 2.704 1.08l1.138 6.491c-0.504 0.093-1.026 0.186-1.809 0.186m3.264 0.952c0.336-0.075 0.355-0.187 0.317-0.43l-1.604-9.156c-0.039-0.205-0.131-0.373-0.429-0.373h-0.746c-0.28 0-0.317 0.149-0.28 0.41l0.093 0.578c-1.099-0.783-1.752-1.119-3.002-1.119-1.586 0-2.909 1.007-2.909 3.301 0 0.354 0.037 0.727 0.111 1.119l0.335 1.846c0.579 3.226 2.612 4.252 4.85 4.252 1.118 0 2.312-0.186 3.264-0.428" fill="#4f4c4d"></path></g><g transform="translate(378.03 55.132)"><path d="m0 0c-1.735 0-2.686-1.007-3.078-3.188l-0.243-1.362c-0.092-0.503-0.13-0.952-0.13-1.324 0-1.418 0.672-1.883 2.089-1.883 0.523 0 1.529 0.073 2.126 0.204l1.287 7.348c-0.503 0.094-1.269 0.205-2.051 0.205m-4.718-3.188c0.596 3.356 2.163 4.568 4.959 4.568 1.101 0 2.425-0.223 3.264-0.428 0.355-0.075 0.355-0.187 0.317-0.43l-1.678-9.511c-0.504-2.89-1.752-3.692-4.439-3.692-1.416 0-2.61 0.185-3.113 0.336-0.3 0.074-0.336 0.168-0.3 0.39l0.094 0.541c0.038 0.244 0.131 0.336 0.447 0.299 0.634-0.074 2.127-0.223 3.115-0.223 1.659 0 2.257 0.54 2.536 2.238l0.038 0.223c-0.484-0.112-1.567-0.261-2.127-0.261-2.014 0-3.468 0.989-3.468 3.338 0 0.373 0.036 0.801 0.112 1.25z" fill="#4f4c4d"></path></g><g transform="translate(387.65 55.076)"><path d="m0 0c-1.624 0-2.704-1.287-3.04-3.002l-0.019-0.094h4.942l0.019 0.094c0.074 0.373 0.112 0.727 0.112 1.025 0 1.325-0.69 1.977-2.014 1.977m3.543-3.152-0.149-0.783c-0.057-0.242-0.13-0.41-0.411-0.41h-6.285l-0.037-0.224c-0.074-0.429-0.112-0.802-0.112-1.138 0-1.398 0.877-1.995 2.312-1.995 1.082 0 2.351 0.131 3.226 0.261 0.281 0.037 0.392-0.019 0.355-0.261l-0.111-0.635c-0.038-0.26-0.131-0.371-0.448-0.428-1.101-0.206-2.013-0.317-3.263-0.317-1.847 0-3.675 0.932-3.675 3.451 0 0.353 0.037 0.745 0.113 1.155l0.241 1.306c0.56 2.965 2.295 4.606 4.942 4.606 2.314 0 3.413-1.51 3.413-3.469 0-0.354-0.036-0.727-0.111-1.119" fill="#4f4c4d"></path></g><g transform="translate(405.44 53.006)"><path d="m0 0-1.137-6.508c-0.038-0.205-0.243-0.373-0.449-0.373h-0.894c-0.224 0-0.335 0.186-0.299 0.373l1.138 6.508c0.055 0.299 0.074 0.56 0.074 0.784 0 0.987-0.485 1.286-1.473 1.286-0.579 0-1.437-0.112-2.275-0.541 0.075-0.41 0.018-1.155-0.038-1.491l-1.137-6.546c-0.038-0.187-0.206-0.373-0.41-0.373h-0.99c-0.222 0-0.278 0.205-0.241 0.373l1.137 6.546c0.076 0.41 0.13 0.709 0.13 1.007 0 0.783-0.484 1.025-1.118 1.025-0.877 0-1.995-0.484-2.481-0.709l-1.38-7.869c-0.036-0.187-0.204-0.373-0.41-0.373h-0.988c-0.224 0-0.28 0.186-0.243 0.373l1.659 9.511c0.038 0.205 0.132 0.373 0.43 0.373h0.895c0.299 0 0.317-0.187 0.28-0.373l-0.056-0.355c0.933 0.56 1.791 0.858 2.722 0.858 0.803 0 1.53-0.354 1.865-0.839 1.176 0.653 2.033 0.839 3.059 0.839 1.866 0 2.722-1.081 2.722-2.704 0-0.28-0.036-0.503-0.092-0.802" fill="#4f4c4d"></path></g><g transform="translate(271.54 37.615)"><path d="m0 0c0.243 0 0.316-0.113 0.279-0.354l-2.312-13.13c-0.037-0.262-0.149-0.373-0.411-0.373h-1.026c-0.241 0-0.298 0.186-0.26 0.373l2.312 13.13c0.038 0.186 0.113 0.354 0.392 0.354z" fill="#4f4c4d"></path></g><g transform="translate(280.87 30.266)"><path d="m0 0-1.083-6.136c-0.037-0.205-0.241-0.373-0.446-0.373h-0.896c-0.224 0-0.336 0.186-0.298 0.373l1.081 6.136c0.056 0.354 0.094 0.728 0.094 1.025 0 0.896-0.373 1.417-1.735 1.417-0.709 0-1.437-0.149-2.63-0.708l-1.38-7.87c-0.037-0.187-0.242-0.373-0.447-0.373h-0.915c-0.222 0-0.317 0.205-0.279 0.373l1.66 9.511c0.037 0.206 0.15 0.374 0.485 0.374h0.783c0.298 0 0.392-0.112 0.355-0.374l-0.057-0.392c0.896 0.503 1.735 0.895 3.004 0.895 1.995 0 2.796-1.267 2.796-2.871 0-0.317-0.037-0.691-0.092-1.007" fill="#4f4c4d"></path></g><g transform="translate(287.07 32.708)"><path d="m0 0c-1.827 0-2.647-1.324-2.983-3.132l-0.243-1.343c-0.074-0.448-0.13-0.858-0.13-1.212 0-1.269 0.56-1.959 1.995-1.959 0.635 0 1.548 0.056 2.2 0.113l1.307 7.403c-0.598 0.113-1.548 0.13-2.146 0.13m3.432 5.074h0.952c0.204 0 0.298-0.094 0.26-0.355l-2.293-13.055c-0.038-0.242-0.132-0.372-0.467-0.429-1.194-0.224-2.35-0.317-3.487-0.317-2.276 0-3.375 1.4-3.375 3.433 0 0.371 0.036 0.763 0.111 1.174l0.243 1.343c0.578 3.207 2.145 4.569 4.867 4.569 0.579 0 1.454-0.057 2.144-0.187l0.616 3.469c0.056 0.261 0.224 0.355 0.429 0.355" fill="#4f4c4d"></path></g><g transform="translate(300.66 34.015)"><path d="m0 0c0.26 0 0.317-0.206 0.279-0.374l-1.659-9.511c-0.038-0.205-0.224-0.373-0.429-0.373h-0.877c-0.224 0-0.316 0.187-0.28 0.373l0.056 0.336c-1.118-0.578-1.995-0.839-3.096-0.839-1.603 0-2.723 0.988-2.723 2.946 0 0.354 0.038 0.727 0.113 1.138l1.043 5.93c0.057 0.28 0.243 0.374 0.449 0.374h0.895c0.223 0 0.336-0.13 0.298-0.374l-1.082-6.135c-0.073-0.411-0.111-0.764-0.111-1.064 0-1.044 0.503-1.38 1.735-1.38 0.783 0 1.716 0.262 2.647 0.69l1.381 7.889c0.037 0.206 0.13 0.374 0.446 0.374z" fill="#4f4c4d"></path></g><g transform="translate(308.86 33.904)"><path d="m0 0c0.279-0.057 0.317-0.113 0.279-0.374l-0.092-0.616c-0.038-0.222-0.149-0.354-0.43-0.317-0.633 0.076-1.697 0.149-2.742 0.149-0.858 0-1.957-0.241-1.957-1.323 0-0.466 0.373-0.821 1.007-1.232l1.659-1.099c1.288-0.858 1.661-1.511 1.661-2.5 0-2.201-1.959-2.965-4.01-2.965-0.783 0-2.089 0.074-2.91 0.279-0.186 0.038-0.354 0.168-0.317 0.374l0.112 0.652c0.056 0.243 0.149 0.317 0.467 0.28 0.876-0.112 2.22-0.204 2.891-0.204 1.099 0 2.106 0.39 2.106 1.584 0 0.43-0.223 0.765-1.08 1.325l-1.68 1.099c-1.026 0.672-1.566 1.418-1.566 2.425 0 2.071 1.996 2.704 3.86 2.704 1.437 0 1.941-0.074 2.742-0.241" fill="#4f4c4d"></path></g><g transform="translate(315.85 34.015)"><path d="m0 0c0.223 0 0.335-0.111 0.298-0.374l-0.111-0.633c-0.057-0.336-0.225-0.373-0.43-0.373h-2.014l-1.156-6.547c-0.038-0.223-0.057-0.391-0.057-0.541 0-0.54 0.261-0.596 0.858-0.596h1.137c0.206 0 0.3-0.057 0.263-0.261l-0.114-0.654c-0.036-0.167-0.13-0.279-0.39-0.316-0.373-0.056-0.822-0.093-1.175-0.093-1.269 0-2.238 0.485-2.238 1.771 0 0.243 0.019 0.429 0.074 0.727l1.156 6.51-1.771 0.205c-0.187 0.019-0.336 0.149-0.298 0.336l0.093 0.503c0.056 0.26 0.205 0.336 0.41 0.336h1.809l0.298 1.827c0.037 0.187 0.205 0.336 0.411 0.373l0.988 0.149c0.262 0.038 0.317-0.13 0.279-0.316l-0.336-2.033z" fill="#4f4c4d"></path></g><g transform="translate(317.43 24.13)"><path d="m0 0c-0.036-0.205-0.242-0.373-0.447-0.373h-0.915c-0.203 0-0.316 0.186-0.279 0.373l1.66 9.511c0.037 0.206 0.224 0.374 0.429 0.374h0.877c0.223 0 0.317-0.187 0.279-0.374l-0.073-0.428c1.007 0.783 1.901 0.932 2.759 0.932h0.037c0.317 0 0.373-0.13 0.336-0.336l-0.13-0.783c-0.038-0.205-0.187-0.318-0.448-0.318h-0.056c-1.063 0-1.754-0.185-2.666-0.764z" fill="#4f4c4d"></path></g><g transform="translate(325.62 37.893)"><path d="m0 0c0.262 0 0.335-0.111 0.298-0.373l-0.26-1.492c-0.057-0.26-0.149-0.373-0.449-0.373h-0.95c-0.28 0-0.336 0.187-0.299 0.373l0.261 1.492c0.038 0.206 0.168 0.373 0.448 0.373zm-0.728-3.878c0.225 0 0.354-0.076 0.3-0.374l-1.661-9.511c-0.036-0.205-0.131-0.373-0.447-0.373h-0.896c-0.26 0-0.336 0.186-0.298 0.373l1.66 9.511c0.056 0.336 0.242 0.374 0.448 0.374z" fill="#4f4c4d"></path></g><g transform="translate(331.14 32.765)"><path d="m0 0c-1.921 0-2.891-1.063-3.245-3.04l-0.336-1.921c-0.056-0.279-0.075-0.578-0.075-0.858 0-1.435 0.728-1.939 1.623-1.939 0.877 0 1.679 0.391 2.704 1.081l1.138 6.49c-0.504 0.094-1.026 0.187-1.809 0.187m3.264 0.952c0.336-0.076 0.355-0.187 0.317-0.43l-1.604-9.157c-0.038-0.205-0.131-0.373-0.429-0.373h-0.746c-0.28 0-0.317 0.149-0.28 0.411l0.093 0.577c-1.099-0.782-1.752-1.118-3.002-1.118-1.586 0-2.909 1.007-2.909 3.3 0 0.355 0.037 0.728 0.111 1.12l0.335 1.846c0.579 3.226 2.612 4.252 4.85 4.252 1.119 0 2.312-0.187 3.264-0.428" fill="#4f4c4d"></path></g><g transform="translate(339.04 37.782)"><path d="m0 0c0.206 0 0.317-0.094 0.262-0.354l-2.332-13.298c-0.036-0.205-0.112-0.373-0.409-0.373h-0.97c-0.205 0-0.3 0.187-0.262 0.373l2.331 13.298c0.038 0.205 0.131 0.354 0.411 0.354z" fill="#4f4c4d"></path></g><g transform="translate(78.137 79.722)"><path d="m0 0-1.74-9.885c-0.158-0.871-0.791-1.503-1.66-1.503h-0.159c-3.164 0.237-12.1 1.029-17.794 1.029-2.214 0-4.508-0.713-4.508-3.323 0-1.107 0.792-1.818 3.48-3.4l9.648-5.694c5.694-3.322 7.909-7.671 7.909-13.207 0-14.789-12.417-20.8-25.861-20.8-6.484 0-11.545 0.871-15.579 2.057-0.712 0.237-1.345 0.633-1.345 1.344v0.238l1.661 9.728c0.158 0.869 0.87 1.581 1.819 1.581h0.158c3.243-0.317 11.626-1.186 15.817-1.186 3.164 0 5.773 1.107 5.773 4.665 0 1.187-0.79 2.056-3.084 3.559l-10.202 6.723c-4.586 3.005-6.801 8.145-6.801 13.048 0 14.235 11.151 18.505 23.725 18.505 6.248 0 14.473-1.027 17.557-1.977 0.632-0.236 1.186-0.553 1.186-1.264z" fill="#254aa5"></path></g><g transform="translate(123.06 80.671)"><path d="m0 0-1.661-9.648c-0.157-0.87-1.028-1.581-1.898-1.581h-15.974c-2.848 0-3.955-0.95-4.508-3.955l-1.028-5.773h19.454c0.791 0 1.344-0.553 1.344-1.345v-0.237l-1.66-9.332c-0.158-0.869-0.949-1.581-1.819-1.581h-19.455l-1.186-6.564c-0.079-0.633-0.158-1.107-0.158-1.582 0-1.818 0.949-2.372 3.242-2.372h15.975c0.791 0 1.345-0.553 1.345-1.345v-0.237l-1.741-9.648c-0.157-0.948-0.79-1.424-1.818-1.582-3.084-0.396-7.909-0.949-15.579-0.949-9.253 0-17.715 3.322-17.715 13.681 0 1.266 0.157 2.61 0.395 4.034l4.349 24.832c2.769 15.976 12.259 17.715 23.409 17.715 7.672 0 12.496-0.554 15.422-0.949 0.87-0.079 1.265-0.475 1.265-1.265z" fill="#254aa5"></path></g><g transform="translate(179.13 80.83)"><path d="m0 0-9.49-54.251c-0.317-1.582-1.899-2.927-3.48-2.927h-9.806c-1.424 0-2.294 0.632-2.926 2.135l-11.705 26.493c-0.238 0.554-0.474 0.633-0.712 0.633-0.236 0-0.395-0.158-0.474-0.711l-4.745-26.969c-0.158-0.869-1.029-1.581-1.898-1.581h-11.863c-0.791 0-1.344 0.554-1.344 1.345v0.236l9.489 54.253c0.317 1.581 1.899 2.926 3.481 2.926h9.648c1.503 0 2.135-0.949 2.767-2.294l12.021-27.284c0.238-0.554 0.317-0.712 0.554-0.712s0.474 0.08 0.553 0.712l4.904 27.996c0.158 0.87 1.027 1.582 1.898 1.582h11.862c0.791 0 1.266-0.554 1.266-1.266z" fill="#254aa5"></path></g><g transform="translate(208.71 68.888)"><path d="m0 0c0 0.711 0 1.106-0.71 1.106-0.712 0-0.792-0.395-1.029-1.106l-7.435-20.088h9.491zm15.422-45.236h-13.444c-0.791 0-1.344 0.712-1.344 1.502l-0.237 10.993h-14.079l-4.191-10.993c-0.316-0.79-1.027-1.502-1.819-1.502h-13.997c-0.712 0-1.107 0.395-1.107 1.027 0 0.158 0.079 0.396 0.158 0.633l19.138 48.4c3.084 7.829 9.333 9.41 16.846 9.41 7.512 0 13.206-1.581 13.523-9.41l2.056-48.4v-0.079c0-0.869-0.633-1.581-1.503-1.581" fill="#254aa5"></path></g><g transform="translate(256.65 80.909)"><path d="m0 0c0.158 1.027-0.475 1.501-1.345 1.501h-12.969c-0.87 0-1.661-0.631-1.819-1.501l-2.473-14.038 17.585 8.241z" fill="#f0431e"></path></g><g transform="translate(236.94 60.58)"><path d="m0 0-6.226-35.348c-0.158-0.791 0.316-1.582 1.266-1.582h12.969c1.187 0 1.741 0.712 1.899 1.582l7.677 43.589z" fill="#254aa5"></path></g></g></svg>